<svg xmlns="http://www.w3.org/2000/svg" width="430" height="430" fill="none" viewBox="0 0 430 430"><path fill="url(#Vv4D7EVvyPa)" d="M138.626 65.72a6 6 0 0 0-8.406 1.154l-110 145a6 6 0 0 0 0 7.253l110 145a6 6 0 0 0 8.406 1.153 6 6 0 0 0 1.154-8.406L32.531 215.5 139.78 74.127a6 6 0 0 0-1.154-8.407"/><path fill="url(#TUNohbWcBob)" d="M291.373 65.72a6 6 0 0 1 8.407 1.154l110 145a6 6 0 0 1 0 7.253l-110 145a6 6 0 0 1-9.56-7.253L397.469 215.5 290.22 74.127a6 6 0 0 1 1.153-8.407"/><path fill="url(#Ln0JKiCQv_c)" d="M145 235.5c11.046 0 20-8.954 20-20s-8.954-20-20-20-20 8.955-20 20 8.954 20 20 20"/><path fill="url(#O9dCcjXzzVd)" d="M235 215.5c0 11.046-8.954 20-20 20s-20-8.954-20-20 8.954-20 20-20 20 8.955 20 20"/><path fill="url(#LenUXSrtS8e)" d="M285 235.5c11.046 0 20-8.954 20-20s-8.954-20-20-20-20 8.955-20 20 8.954 20 20 20"/><defs><linearGradient id="Vv4D7EVvyPa" x1="99.5687" x2="451.628" y1="8.7623" y2="205.294" gradientUnits="userSpaceOnUse"><stop stop-color="#cb5eee"/><stop offset="1" stop-color="#4be1ec"/></linearGradient><linearGradient id="TUNohbWcBob" x1="99.5687" x2="451.628" y1="8.7623" y2="205.294" gradientUnits="userSpaceOnUse"><stop stop-color="#cb5eee"/><stop offset="1" stop-color="#4be1ec"/></linearGradient><linearGradient id="Ln0JKiCQv_c" x1="99.5687" x2="451.628" y1="8.7623" y2="205.294" gradientUnits="userSpaceOnUse"><stop stop-color="#cb5eee"/><stop offset="1" stop-color="#4be1ec"/></linearGradient><linearGradient id="O9dCcjXzzVd" x1="99.5687" x2="451.628" y1="8.7623" y2="205.294" gradientUnits="userSpaceOnUse"><stop stop-color="#cb5eee"/><stop offset="1" stop-color="#4be1ec"/></linearGradient><linearGradient id="LenUXSrtS8e" x1="99.5687" x2="451.628" y1="8.7623" y2="205.294" gradientUnits="userSpaceOnUse"><stop stop-color="#cb5eee"/><stop offset="1" stop-color="#4be1ec"/></linearGradient></defs></svg>